<?xml version="1.0" standalone="no"?><!DOCTYPE svg PUBLIC "-//W3C//DTD SVG 1.1//EN" "http://www.w3.org/Graphics/SVG/1.1/DTD/svg11.dtd"><svg t="1565659259235" class="icon" viewBox="0 0 1024 1024" version="1.1" xmlns="http://www.w3.org/2000/svg" p-id="1361" xmlns:xlink="http://www.w3.org/1999/xlink" width="200" height="200"><defs><style type="text/css"></style></defs>
<path d="M512 0C230.4 0 0 230.4 0 512s230.4 512 512 512 512-230.4 512-512S793.6 0 512 0z m0 981.333333C251.733333 981.333333 42.666667 772.266667 42.666667 512S251.733333 42.666667 512 42.666667s469.333333 209.066667 469.333333 469.333333-209.066667 469.333333-469.333333 469.333333z" fill="#27D6F2" p-id="1362"></path>
<path d="M640 268.8c-8.533333-8.533333-21.333333-8.533333-29.866667 0L366.933333 512l243.2 243.2c4.266667 4.266667 8.533333 4.266667 17.066667 4.266667s12.8 0 17.066667-4.266667c8.533333-8.533333 8.533333-21.333333 0-29.866667l-209.066667-213.333333L640 302.933333c8.533333-8.533333 8.533333-25.6 0-34.133333z" fill="#27D6F2" p-id="1363"></path>
</svg>