<?xml version="1.0" standalone="no"?><!DOCTYPE svg PUBLIC "-//W3C//DTD SVG 1.1//EN" "http://www.w3.org/Graphics/SVG/1.1/DTD/svg11.dtd">
<svg t="1565664880204" class="icon" viewBox="0 0 1024 1024" version="1.1" xmlns="http://www.w3.org/2000/svg" p-id="2407" xmlns:xlink="http://www.w3.org/1999/xlink" width="200" height="200"><defs><style type="text/css"></style></defs>
<path d="M512 18.285714C310.857143 18.285714 146.285714 182.857143 146.285714 384s365.714286 621.714286 365.714286 621.714286 365.714286-420.571429 365.714286-621.714286-164.571429-365.714286-365.714286-365.714286zM512 950.857143c-113.371429-135.314286-329.142857-424.228571-329.142857-566.857143 0-182.857143 146.285714-329.142857 329.142857-329.142857s329.142857 146.285714 329.142857 329.142857c0 142.628571-215.771429 431.542857-329.142857 566.857143z" fill="#00EBFF" p-id="2408">
</path>
<path d="M512 384m-146.285714 0a146.285714 146.285714 0 1 0 292.571428 0 146.285714 146.285714 0 1 0-292.571428 0Z" fill="#00EBFF" p-id="2409"></path></svg>